<?xml version="1.0" encoding="UTF-8"?>
<svg id="Layer_1" data-name="Layer 1" xmlns="http://www.w3.org/2000/svg" viewBox="0 0 374.84 144.59">
  <defs>
    <style>
      .cls-1 {
        fill: #fff4df;
      }
    </style>
  </defs>
  <polygon class="cls-1" points="367.59 139.33 .05 139.26 .03 142.49 366.53 144.59 367.59 139.33"/>
  <g>
    <path class="cls-1" d="M0,59.31h12.2v24.67h11.99v-24.67h12.22v63.7h-12.22v-28.34h-11.99v28.34H0v-63.7Z"/>
    <path class="cls-1" d="M99.42,104.49v1.51c.33,4.79,1.91,8.39,6.51,8.39s5.86-3.42,5.86-7.18c0-5.44-2.07-7.93-9.51-12.32-9.57-5.44-13.61-9.69-13.61-19.15s5.25-17.49,17.2-17.49c13.95,0,16.92,9.45,17.03,17.46v1.31h-11.91v-1.24c-.22-3.99-1.04-7.81-5.27-7.81-3.51,0-4.92,2.47-4.92,6.45s1.4,6.11,8.01,9.75c10.86,6.07,15.32,10.82,15.32,21.61,0,9.79-5.2,18.29-18.54,18.29-14.07,0-18.05-8.78-18.28-18.18v-1.41h12.11Z"/>
    <path class="cls-1" d="M130.92,59.31h12.21v24.67h11.99v-24.67h12.22v63.7h-12.22v-28.34h-11.99v28.34h-12.21v-63.7Z"/>
    <path class="cls-1" d="M187.34,107.81l-2.4,15.19h-12.28l12.62-63.7h16.57l12.82,63.7h-12.74l-2.51-15.19h-12.08ZM197.64,97.12c-1.66-10.44-3.22-20.04-4.11-26.63h-.35c-.56,5.67-2.35,16.59-4.03,26.63h8.5Z"/>
    <path class="cls-1" d="M224.01,123v-21.84c0-.83-.1-1.46-.45-2.39l-14.31-39.47h13.53c2.87,9.79,6.16,21.21,7.65,28.59h.06c1.88-7.94,5.18-19.09,7.76-28.59h12.82l-14.54,39.94c-.16.53-.32,1.24-.32,2.43v21.33h-12.21Z"/>
    <path class="cls-1" d="M260.8,107.81l-2.4,15.19h-12.28l12.62-63.7h16.57l12.82,63.7h-12.74l-2.51-15.19h-12.08ZM271.1,97.12c-1.66-10.44-3.22-20.04-4.11-26.63h-.35c-.56,5.67-2.35,16.59-4.03,26.63h8.5Z"/>
    <path class="cls-1" d="M305.02,95.91v27.09h-12.13v-63.7h18.31c11.16,0,17.54,5.29,17.54,16.88v.84c0,9.38-4.6,12.74-7.55,13.98,4.37,2.15,6.69,5.64,6.69,14.82v1.56c0,6.73.19,12.18.71,15.62h-11.77c-.88-3.12-.95-9.98-.95-15.57v-1.47c0-7.96-1.53-10.06-7.67-10.06h-3.17ZM305.03,86.17h3.42c5.82,0,8.13-2.12,8.13-8.54v-.82c0-5.02-1.83-7.78-7.14-7.78h-4.4v17.14Z"/>
    <path class="cls-1" d="M347.51,107.81l-2.4,15.19h-12.28l12.62-63.7h16.57l12.82,63.7h-12.74l-2.51-15.19h-12.08ZM357.81,97.12c-1.66-10.44-3.22-20.04-4.11-26.63h-.35c-.56,5.67-2.35,16.59-4.03,26.63h8.5Z"/>
  </g>
  <g>
    <path class="cls-1" d="M81.02.65c-3.01-1.33-8.59-.97-10.97,4.38l-18.07,40.74c-.59,1.32-.36,2.87.59,3.96l1.9,2.2c.51.59.74,1.37.62,2.15l-.87,5.86-12.49,63.06h12.28l2.4-15.19h12.08l2.51,15.19h12.74l-12.81-63.68-2.67-.57-5.09,15.75c.91,6.21,2.2,14.13,3.54,22.61h-8.5c1.67-9.96,3.44-20.78,4.01-26.49v-.02s0-.02,0-.03c0-.03,0-.07.01-.1h.02c.45-1.43,5.05-15.85,5.84-18.14.81-2.38.75-5.21,7.17-7.22.14-.07.28-.16.42-.22,1.64-.72,2.65-2.4,2.55-4.19l-1.27-21.64c-.07-1.18.49-2.32,1.48-2.96,2.06-1.31,5.3-1.86,7.03-5.76,2.29-5.17-1.45-8.39-4.46-9.72Z"/>
    <rect class="cls-1" x="47.92" y="36.5" width="6.51" height="3.89" rx="1.17" ry="1.17" transform="translate(-4.72 69.64) rotate(-66.08)"/>
    <rect class="cls-1" x="51.43" y="28.58" width="6.51" height="3.89" rx="1.17" ry="1.17" transform="translate(4.6 68.14) rotate(-66.08)"/>
    <rect class="cls-1" x="54.94" y="20.67" width="6.51" height="3.89" rx="1.17" ry="1.17" transform="translate(13.93 66.64) rotate(-66.08)"/>
    <rect class="cls-1" x="58.45" y="12.75" width="6.51" height="3.89" rx="1.17" ry="1.17" transform="translate(23.26 65.15) rotate(-66.08)"/>
    <rect class="cls-1" x="61.96" y="4.83" width="6.51" height="3.89" rx="1.17" ry="1.17" transform="translate(32.58 63.65) rotate(-66.08)"/>
  </g>
</svg>
